<svg width="36" height="37" viewBox="0 0 36 37" fill="none" xmlns="http://www.w3.org/2000/svg">
<path d="M28.461 8.59063C24.403 7.71512 21.6141 13.0662 20.727 15.8511L19.0883 17.4953L18.6362 16.4952L19.3195 15.2076C19.1626 15.0527 18.688 14.9963 18.0446 16.0099C17.5445 15.6939 17.074 16.2228 16.9012 16.5268L19.727 22.7773C20.0234 21.9784 20.791 20.4218 21.491 20.5872C22.366 20.7938 22.5541 20.6335 22.4083 19.5702C22.2626 18.5069 24.4742 16.566 26.308 15.4359C25.5 13.731 26.7386 11.7783 27.7045 11.1158C27.1111 9.80317 27.0404 9.6469 28.461 8.59063Z" fill="white"/>
<path d="M3.14986 20.0188C5.22663 16.4143 11.1131 17.7763 13.7968 18.9078L16.1318 18.7407L15.6871 17.757L14.2625 17.4385C14.2521 17.2211 14.5294 16.8291 15.7219 17.0008C15.822 16.4224 16.5351 16.4111 16.8791 16.4777L19.6585 22.6258C18.8605 22.3325 17.1776 21.9036 16.83 22.5346C16.3956 23.3234 16.1489 23.3609 15.4505 22.5659C14.7522 21.771 11.809 22.176 9.72751 22.8208C8.99443 21.1159 6.6976 20.7844 5.55089 21.0807C4.9672 19.7896 4.89772 19.6359 3.14986 20.0188Z" fill="white"/>
</svg>
