<svg width="99" height="138" viewBox="0 0 99 138" fill="none" xmlns="http://www.w3.org/2000/svg">
<g filter="url(#filter0_i_116_7)">
<path d="M60.3331 44.6575C31.0029 -27.5234 14.8747 34.7079 28.8518 57.069L26.5297 69.9117C26.5297 69.9117 16.9751 76.1077 15.142 82.9327C11.5053 96.4727 38.6736 89.3117 38.6736 89.3117C38.6736 89.3117 42.487 100.441 43.0727 108.733C43.7296 118.034 40.977 133.695 40.977 133.695L90.1295 119.752C87.0455 115.26 80.341 104.079 78.1949 95.2887C75.5124 84.3009 81.8186 77.0727 86.8106 71.7403C90.8042 67.4745 84.2653 65.065 80.4966 64.3935C76.3703 65.564 66.5606 63.2556 60.3331 44.6575Z" fill="#FCFCFC" stroke="#FF7518"/>
<ellipse cx="4.41245" cy="9.37507" rx="4.41245" ry="9.37507" transform="matrix(0.915956 -0.401279 0.330193 0.943913 25.9745 33.9825)" fill="#D9D9D9"/>
<ellipse cx="4.36585" cy="9.4582" rx="4.36585" ry="9.4582" transform="matrix(0.970568 -0.240829 0.19435 0.980932 38.3756 28.7195)" fill="#D9D9D9"/>
</g>
<defs>
<filter id="filter0_i_116_7" x="14.3134" y="10.2819" width="76.6307" height="128.108" filterUnits="userSpaceOnUse" color-interpolation-filters="sRGB">
<feFlood flood-opacity="0" result="BackgroundImageFix"/>
<feBlend mode="normal" in="SourceGraphic" in2="BackgroundImageFix" result="shape"/>
<feColorMatrix in="SourceAlpha" type="matrix" values="0 0 0 0 0 0 0 0 0 0 0 0 0 0 0 0 0 0 127 0" result="hardAlpha"/>
<feOffset dy="4"/>
<feGaussianBlur stdDeviation="2"/>
<feComposite in2="hardAlpha" operator="arithmetic" k2="-1" k3="1"/>
<feColorMatrix type="matrix" values="0 0 0 0 0 0 0 0 0 0 0 0 0 0 0 0 0 0 0.25 0"/>
<feBlend mode="normal" in2="shape" result="effect1_innerShadow_116_7"/>
</filter>
</defs>
</svg>
