<svg width="74" height="100" viewBox="0 0 74 100" fill="none" xmlns="http://www.w3.org/2000/svg">
<g filter="url(#filter0_f_116_16)">
<path d="M28.2566 33.1263C46.5339 -18.0079 59.6151 24.8463 50.5472 40.8328L52.5461 49.7065C52.5461 49.7065 59.3835 53.7369 60.8629 58.4349C63.7979 67.7551 44.6667 63.5765 44.6667 63.5765C44.6667 63.5765 42.3422 71.4398 42.181 77.2311C42.0001 83.7275 44.3825 94.5509 44.3825 94.5509L9.74129 86.3034C11.7552 83.0838 16.0914 75.0985 17.3244 68.9137C18.8656 61.1827 14.2594 56.337 10.6248 52.7724C7.71703 49.9206 12.1986 48.0484 14.8029 47.4687C17.7111 48.1611 24.4732 46.262 28.2566 33.1263Z" fill="#FCFCFC" stroke="#C2A089"/>
<path d="M44.7041 28.8807C44.1979 30.5534 44.0586 32.1654 44.2229 33.408C44.3932 34.6947 44.8522 35.3921 45.3573 35.5881C45.8624 35.7842 46.6026 35.5523 47.434 34.6543C48.2367 33.7871 48.9996 32.4171 49.5058 30.7444C50.0119 29.0717 50.1513 27.4598 49.9869 26.2172C49.8167 24.9305 49.3577 24.2331 48.8525 24.0371C48.3474 23.841 47.6072 24.0729 46.7759 24.9709C45.9731 25.8381 45.2102 27.208 44.7041 28.8807Z" fill="white" stroke="#C2A089"/>
<path d="M36.5946 26.7777C36.3257 28.5219 36.4107 30.1429 36.7447 31.3458C37.0915 32.5946 37.6414 33.2001 38.1585 33.3052C38.6756 33.4103 39.373 33.0584 40.072 32.0222C40.7453 31.0241 41.3096 29.535 41.5784 27.7907C41.8472 26.0465 41.7623 24.4255 41.4282 23.2226C41.0814 21.9738 40.5316 21.3683 40.0144 21.2632C39.4973 21.1581 38.7999 21.51 38.1009 22.5462C37.4276 23.5443 36.8634 25.0334 36.5946 26.7777Z" fill="white" stroke="#C2A089"/>
</g>
<defs>
<filter id="filter0_f_116_16" x="4.9397" y="4.28854" width="60.724" height="94.93" filterUnits="userSpaceOnUse" color-interpolation-filters="sRGB">
<feFlood flood-opacity="0" result="BackgroundImageFix"/>
<feBlend mode="normal" in="SourceGraphic" in2="BackgroundImageFix" result="shape"/>
<feGaussianBlur stdDeviation="2" result="effect1_foregroundBlur_116_16"/>
</filter>
</defs>
</svg>
