<svg width="50" height="45" viewBox="0 0 50 45" fill="none" xmlns="http://www.w3.org/2000/svg">
<path d="M48.5486 32.1276C46.7009 24.9948 35.9921 24.8397 30.8687 25.6538L26.955 24.3666L28.1802 22.8522L30.7667 22.9089C30.8873 22.5366 30.5983 21.7391 28.4781 21.5271C28.5802 20.4821 27.3664 20.1578 26.7467 20.1263L19.0889 29.5913C20.592 29.4241 23.6723 29.4001 23.9683 30.6419C24.3384 32.1941 24.7425 32.3645 26.3123 31.2854C27.8821 30.2064 32.7232 32.1656 35.9775 34.1721C38.0367 31.5314 42.1206 31.9383 43.9413 32.9416C45.5495 30.9539 45.7409 30.7173 48.5486 32.1276Z" fill="white"/>
<path d="M10.2439 1.10611C17.6155 1.52479 20.1499 11.9447 20.4956 17.1024L22.6226 20.6717L23.8278 19.1822L23.1968 16.6692C23.5333 16.4793 24.3759 16.6064 25.0546 18.6343C26.0515 18.3318 26.6381 19.4534 26.8068 20.052L19.2745 29.3618C19.1032 27.8626 18.4412 24.8521 17.1635 24.8042C15.5664 24.7444 15.3103 24.383 16.0139 22.6417C16.7175 20.9004 13.7284 16.5565 11.0461 13.7703C13.1649 11.2484 11.859 7.34206 10.4748 5.76005C12.0565 3.80498 12.2449 3.57223 10.2439 1.10611Z" fill="white"/>
</svg>
