<svg width="126" height="48" viewBox="0 0 126 48" fill="none" xmlns="http://www.w3.org/2000/svg">
<path d="M125.037 3.76789C109.534 -7.53722 87.73 9.85262 78.7658 19.9607L68.7638 23.839L68.7271 18.7648L74.0254 14.6035C73.6528 13.6547 71.7536 12.5267 67.137 15.6048C65.616 13.3324 62.6377 14.686 61.3387 15.6468L61.5684 47.3603C64.3167 44.5388 70.4751 39.3987 73.1225 41.4093C76.4319 43.9225 77.5265 43.5974 78.9025 38.8302C80.2784 34.0629 93.2567 30.0045 103.12 28.6645C102.9 19.9444 111.791 14.0127 117.112 13.0227C117.064 6.36287 117.058 5.57004 125.037 3.76789Z" fill="white"/>
<path d="M0.0273384 4.64367C15.8186 -6.88817 38.5175 10.1792 47.8931 20.1544L58.2452 23.8852L58.2084 18.8111L52.6936 14.7281C53.0632 13.774 55.0015 12.6182 59.7986 15.6281C61.3308 13.3335 64.4163 14.6432 65.7675 15.5848L65.9972 47.2982C63.127 44.5175 56.7125 39.4685 54.017 41.5177C50.6477 44.0794 49.5161 43.7704 48.0298 39.0239C46.5434 34.2774 33.1251 30.4103 22.9527 29.2154C23.0509 20.493 13.8131 14.6926 8.32132 13.781C8.27307 7.12114 8.26732 6.3283 0.0273384 4.64367Z" fill="white"/>
</svg>
